<svg height="30" viewBox="0 0 168 30" width="168" xmlns="http://www.w3.org/2000/svg" xmlns:xlink="http://www.w3.org/1999/xlink"><mask id="a" fill="#fff"><path d="m.03322222.08250185h12.70251668v15.08897965h-12.70251668z" fill="#fff" fill-rule="evenodd"/></mask><g fill="none" fill-rule="evenodd" transform="translate(0 3)"><path d="m3.48833333.13731852.02823889.02768518v3.12897963h.05481667c.58138889-1.68879629 2.38092592-3.21148148 4.70648148-3.21148148 2.76907223 0 4.01490553 1.24583334 4.01490553 4.18046296v6.00768519c0 1.5509241.0553704 3.488887.442963 4.9008315h-3.5713889c.30453704-1.2735185.35990741-2.9623148.35990741-4.7895371v-5.67601662c0-1.66111111-.69212963-2.38147963-2.51990556-2.38147963-1.54981666 0-2.74083333.58194259-3.40527778 1.38481296v6.67268329c0 1.8272223.02768519 3.5160186.35990741 4.7895371h-3.57138889c.38703889-1.4119445.44296297-3.3499074.44296297-4.9008315v-5.39861111c0-1.63342593-.33277593-3.04592408-.83055556-3.68212963z" fill="#ed1c24" mask="url(#a)" transform="translate(0 6.644444)"/><path d="m21.6498148 18.7982407v-5.5375907c-.3322222.6644444-1.5780555 1.3288889-2.6300926 1.7718519-1.7170352.7198148-2.2707389 1.3848129-2.2707389 3.0182388 0 1.5226852.8311093 2.3255556 2.2430537 2.3255556 1.439076 0 2.2701852-.6644444 2.6577778-1.5780556zm-1.9108315-12.0712944c3.4058315 0 4.7070352 1.495 4.7070352 4.3742593v7.226387c0 1.190463.4706482 1.7164815 1.4119445 1.7164815.304537 0 .7480537-.1107408.9412963-.2768519-.0548167.3039834-.1107408.5537037-.1655574.7475-.3881463.9689815-1.0249056 1.6057408-2.2707389 1.6057408-1.8272223 0-2.5470371-1.3288889-2.6024074-2.8515741h-.0553704c-.5260185 1.7164815-1.7718519 2.8792592-4.0149056 2.8792592-2.4080574 0-3.8205555-1.5226851-3.8482407-3.6267592 0-1.8831463 1.4119444-3.18435 4.0149055-4.1256463 1.6611112-.6367593 3.7928704-1.3842593 3.7928704-2.9069445v-.6921296c0-1.91083146-.6367592-2.79675739-2.6029611-2.79675739-1.1074074 0-1.5498167.49888704-1.7718518 1.63397963-.2209278 1.21814816-.6644445 1.74416666-1.5226852 1.74416666-.6644445 0-1.3565741-.4706481-1.3565741-1.3565741 0-1.9933333 2.6860167-3.294537 5.3432407-3.294537z" fill="#ed1c24"/><path d="m34.5782426 20.487037c-.4152778.9689815-1.4667611 1.6611111-3.0453704 1.6611111-2.6300926 0-3.8759259-1.3012037-3.8759259-4.1256462v-9.2468519h-1.7441667v-.08360926l4.4296297-4.6787963.0830555.02768519v2.99h3.8211093l-.332776 1.74472037h-3.4883333v9.0812944c0 1.5780556.8582408 2.1871297 2.1599982 2.1871297.9961129 0 1.6334259-.1661111 2.2148148-.442963-.0553704.3599074-.0836093.5537037-.2220352.8859259" fill="#ed1c24"/><path d="m38.4259296 6.86537222v10.27120368c0 1.9108315.7198148 3.0730556 2.6583315 3.0730556 1.7164815 0 2.9905537-.8853722 3.5442574-1.8820389v-7.364813c0-1.16277775-.1112944-2.65777775-.4712018-3.73805367l3.2397203-.35935371v10.21638708c0 1.7436129.1107408 3.4052777.4700945 4.7341666h-3.1561111v-3.0730555h-.0276852c-.4700945 1.7718518-1.9102778 3.4052777-4.6511111 3.4052777-3.2674056 0-4.374813-1.9102777-4.374813-4.8449074v-6.3404611c0-1.16277775-.1384259-2.65777775-.4706481-3.73805367z" fill="#ed1c24"/><path d="m52.7945407 10.3537056c.5537037-2.43685004 1.8000908-3.65499819 3.7928704-3.65499819 1.1074074 0 1.993887.58194259 1.993887 1.74472037 0 1.02435185-.498887 1.60574072-1.4678685 1.60574072-.5537037 0-.8853722-.27685183-1.1345389-.58138887-.2768518-.33222222-.5537037-.63731296-.9689814-.63731296-1.1910167 0-2.1876834 1.57860923-2.1876834 3.43351663v4.67935c0 1.7995371.0276852 3.5713889.3599074 4.8725926h-3.5713889c.3875926-1.4119444.4424093-3.3499074.4424093-4.9008315v-5.3986111c0-1.63342589-.3316685-3.04592404-.8305556-3.6821296l3.4888871-1.05259074.0276852.02768519v3.54425745z" fill="#ed1c24"/><path d="m61.0724111 12.7069463 6.2014815-.4152778c-.0825019-2.74083331-.5254648-4.20814813-2.6577778-4.20814813-2.0487037 0-3.2668518 1.66111111-3.5437037 4.62342593zm3.627313 9.4412018c-3.4058315 0-6.5342574-2.4086111-6.5342574-7.3648129 0-4.7618519 2.6849092-8.0563889 6.5060185-8.0563889 3.8487944 0 5.5375907 2.21481481 5.5375907 6.8936111h-9.1920352v.442963c0 4.2087018 1.937963 5.7867574 4.7900908 5.7867574 2.4916666 0 3.8482407-1.190463 4.485-1.9662019l.0553704.1666648c-.637313 2.2425-2.4091649 4.0974074-5.6477778 4.0974074z" fill="#ed1c24"/><g fill="#575756"><path d="m78.2649111 10.3537056c.5537037-2.43685004 1.799537-3.65499819 3.7928704-3.65499819 1.1074074 0 1.9933333.58194259 1.9933333 1.74472037 0 1.02435185-.4983333 1.60574072-1.4673148 1.60574072-.5537037 0-.8859259-.27685183-1.1350926-.58138887-.2768518-.33222222-.5537037-.63731296-.9689815-.63731296-1.1910166 0-2.1876833 1.57860923-2.1876833 3.43351663v4.67935c0 1.7995371.0276852 3.5713889.3604611 4.8725926h-3.5713889c.3870389-1.4119444.4424093-3.3499074.4424093-4.9008315v-5.3986111c0-1.63342589-.3322222-3.04592404-.8305556-3.6821296l3.4883334-1.05259074.0282388.02768519v3.54425745z"/><path d="m86.4038019 12.7069463 6.2020351-.4152778c-.0830555-2.74083331-.5260185-4.20814813-2.6583314-4.20814813-2.0487037 0-3.2668519 1.66111111-3.5437037 4.62342593zm3.6273129 9.4412018c-3.4058315 0-6.5342574-2.4086111-6.5342574-7.3648129 0-4.7618519 2.685463-8.0563889 6.5065722-8.0563889 3.8482408 0 5.5370371 2.21481481 5.5370371 6.8936111h-9.1920352v.442963c0 4.2087018 1.9379629 5.7867574 4.7900907 5.7867574 2.4916667 0 3.8482408-1.190463 4.485-1.9662019l.0553704.1666648c-.6367593 2.2425-2.4086111 4.0974074-5.6477778 4.0974074z"/><path d="m105.174357 7.41907593.13898 2.82388887h-.083056c-1.107407-1.30120369-2.243053-2.13175924-3.84824-2.13175924-1.274072 0-2.2984243.5537037-2.2984243 1.88259259 0 1.27351855.6367592 1.91027775 3.0453703 2.93462965 2.409165.9966666 4.236387 2.0763889 4.236387 4.4301833 0 2.3255556-1.245833 4.789537-5.233054 4.789537-1.6334256 0-3.1284256-.3322222-4.3742589-1.0243518l-.1661111-3.2950907h.110187c1.0525908 1.4119444 2.6860167 2.9351833 4.374813 2.9351833 2.131759 0 2.796757-.8028704 2.796757-2.2978704 0-1.6062944-.830555-2.0487037-3.073609-3.0459241-2.5193517-1.1074074-4.1250924-2.0210185-4.1250924-4.5126851 0-2.29842411 1.7441666-4.180463 4.7341664-4.180463 1.910832 0 3.073056.3593537 3.765185.69212963"/><path d="m110.04695 12.7069463 6.201481-.4152778c-.082501-2.74083331-.525464-4.20814813-2.657777-4.20814813-2.048704 0-3.266852 1.66111111-3.543704 4.62342593zm3.627313 9.4412018c-3.405832 0-6.534257-2.4086111-6.534257-7.3648129 0-4.7618519 2.685463-8.0563889 6.506018-8.0563889 3.848795 0 5.537591 2.21481481 5.537591 6.8936111h-9.192035v.442963c0 4.2087018 1.937963 5.7867574 4.79009 5.7867574 2.491667 0 3.848241-1.190463 4.484447-1.9662019l.055924.1666648c-.63676 2.2425-2.409165 4.0974074-5.647778 4.0974074z"/><path d="m127.986396 18.7982407v-5.5375907c-.331668.6644444-1.577502 1.3288889-2.630092 1.7718519-1.716482.7198148-2.270185 1.3848129-2.270185 3.0182388 0 1.5226852.830555 2.3255556 2.243053 2.3255556 1.439076 0 2.269632-.6644444 2.657224-1.5780556zm-1.910277-12.0712944c3.405831 0 4.707035 1.495 4.707035 4.3742593v7.226387c0 1.190463.470648 1.7164815 1.411944 1.7164815.304537 0 .7475-.1107408.941296-.2768519-.054816.3039834-.11074.5537037-.166111.7475-.387592.9689815-1.024352 1.6057408-2.270185 1.6057408-1.827222 0-2.547591-1.3288889-2.602407-2.8515741h-.055371c-.526018 1.7164815-1.771851 2.8792592-4.014905 2.8792592-2.408611 0-3.820556-1.5226851-3.848241-3.6267592 0-1.8831463 1.411945-3.18435 4.014352-4.1256463 1.661111-.6367593 3.79287-1.3842593 3.79287-2.9069445v-.6921296c0-1.91083146-.636759-2.79675739-2.602407-2.79675739-1.107408 0-1.55037.49888704-1.771852 1.63397963-.221481 1.21814816-.664444 1.74416666-1.522685 1.74416666-.664445 0-1.356574-.4706481-1.356574-1.3565741 0-1.9933333 2.685463-3.294537 5.343241-3.294537z"/><path d="m136.845656 10.3537056c.553703-2.43685004 1.799537-3.65499819 3.793424-3.65499819 1.107407 0 1.993333.58194259 1.993333 1.74472037 0 1.02435185-.498887 1.60574072-1.467869 1.60574072-.553703 0-.885372-.27685183-1.135092-.58138887-.276852-.33222222-.553704-.63731296-.968982-.63731296-1.190463 0-2.187129 1.57860923-2.187129 3.43351663v4.67935c0 1.7995371.027685 3.5713889.360461 4.8725926h-3.571943c.387593-1.4119444.442963-3.3499074.442963-4.9008315v-5.3986111c0-1.63342589-.332222-3.04592404-.831109-3.6821296l3.488887-1.05259074.027685.02768519v3.54425745z"/><path d="m148.584728 22.1481481c-3.710369 0-6.506572-2.6854629-6.506572-7.3371277 0-5.34324077 3.543703-8.0840741 7.060275-8.0840741 3.266852 0 4.485 1.46676111 4.485 2.85102037 0 1.02490553-.498333 1.60629443-1.495 1.60629443-.886479 0-1.328888-.6090741-1.440183-1.71648147-.083055-1.19101667-.442409-1.38425926-1.744167-1.38425926-2.325555 0-4.042037 2.21481483-4.042037 5.86925923 0 3.9866667 1.799537 5.8974982 4.595741 5.8974982 1.827776 0 3.461202-.6921297 4.291758-1.68935l.05537.1666648c-.553704 1.799537-2.214815 3.8205555-5.260185 3.8205555"/><path d="m157.969452 9.91074259h.05537c.553704-1.68879629 2.326109-3.18379629 4.651665-3.18379629 2.768519 0 4.014352 1.24583333 4.014352 4.180463v6.0076851c0 1.5509241.054817 3.4888871.442963 4.9008315h-3.571943c.304537-1.2735185.360461-2.9623148.360461-4.789537v-5.6760167c0-1.66111109-.692129-2.38147961-2.519905-2.38147961-1.550371 0-2.740834.5819426-3.405278 1.38481301v6.6726833c0 1.8272222.027685 3.5160185.359907 4.789537h-3.571388c.387592-1.4119444.442963-3.3499074.442963-4.9008315v-11.93286847c0-1.77185186-.332223-3.12842593-.802871-3.79342408l3.599074-1.02435185.055371.02823889-.110741 4.26351852z"/></g></g></svg>